<svg xmlns="http://www.w3.org/2000/svg" version="1.1" xmlns:xlink="http://www.w3.org/1999/xlink" xmlns:svgjs="http://svgjs.dev/svgjs" width="1000" height="1000" viewBox="0 0 1000 1000"><rect width="1000" height="1000" fill="#000000"></rect><g transform="matrix(0.7,0,0,0.7,149.57575757575756,282.1265587044535)"><svg viewBox="0 0 396 247" data-background-color="#ffffff" preserveAspectRatio="xMidYMid meet" height="623" width="1000" xmlns="http://www.w3.org/2000/svg" xmlns:xlink="http://www.w3.org/1999/xlink"><g id="tight-bounds" transform="matrix(1,0,0,1,0.2400000000000091,-0.09999999999999432)"><svg viewBox="0 0 395.52 247.2" height="247.2" width="395.52"><g><svg></svg></g><g><svg viewBox="0 0 395.52 247.2" height="247.2" width="395.52"><g transform="matrix(1,0,0,1,145.54760506329114,47.215199999999996)"><svg viewBox="0 0 104.42478987341771 152.7696" height="152.7696" width="104.42478987341771"><g><svg viewBox="0 0 104.42478987341771 152.7696" height="152.7696" width="104.42478987341771"><g><svg viewBox="0 0 104.42478987341771 152.7696" height="152.7696" width="104.42478987341771"><g><svg viewBox="0 0 104.42478987341771 152.7696" height="152.7696" width="104.42478987341771"><g id="textblocktransform"><svg viewBox="0 0 104.42478987341771 152.7696" height="152.7696" width="104.42478987341771" id="textblock"><g><svg viewBox="0 0 104.42478987341771 152.7696" height="152.7696" width="104.42478987341771"><g transform="matrix(1,0,0,1,0,0)"><svg width="104.42478987341771" viewBox="2.9000000953674316 -35.20000076293945 24.30000114440918 35.54999923706055" height="152.7696" data-palette-color="#0063db"><path d="M15.2 0.35Q11.7 0.35 8.9-0.88 6.1-2.1 4.5-4.35 2.9-6.6 2.9-9.6L2.9-9.6 9-9.6Q9.2-7.35 10.78-5.9 12.35-4.45 15.2-4.45L15.2-4.45Q18.15-4.45 19.8-5.88 21.45-7.3 21.45-9.55L21.45-9.55Q21.45-11.3 20.43-12.4 19.4-13.5 17.88-14.1 16.35-14.7 13.65-15.4L13.65-15.4Q10.25-16.3 8.13-17.23 6-18.15 4.5-20.1 3-22.05 3-25.3L3-25.3Q3-28.3 4.5-30.55 6-32.8 8.7-34 11.4-35.2 14.95-35.2L14.95-35.2Q20-35.2 23.23-32.68 26.45-30.15 26.8-25.75L26.8-25.75 20.5-25.75Q20.35-27.65 18.7-29 17.05-30.35 14.35-30.35L14.35-30.35Q11.9-30.35 10.35-29.1 8.8-27.85 8.8-25.5L8.8-25.5Q8.8-23.9 9.78-22.88 10.75-21.85 12.25-21.25 13.75-20.65 16.35-19.95L16.35-19.95Q19.8-19 21.98-18.05 24.15-17.1 25.68-15.13 27.2-13.15 27.2-9.85L27.2-9.85Q27.2-7.2 25.78-4.85 24.35-2.5 21.63-1.07 18.9 0.35 15.2 0.35L15.2 0.35Z" opacity="1" transform="matrix(1,0,0,1,0,0)" fill="#ffffff" class="wordmark-text-0" data-fill-palette-color="primary" id="text-0"></path></svg></g></svg></g></svg></g></svg></g></svg></g></svg></g></svg></g><path d="M327.849 41.215L327.849 0 80.649 0 80.649 247.2 327.849 247.2 327.849 205.985 314.072 205.985 314.072 233.423 94.426 233.423 94.426 13.777 314.072 13.777 314.072 41.215Z" fill="#ffffff" stroke="transparent" data-fill-palette-color="primary"></path></svg></g><defs></defs></svg><rect width="395.52" height="247.2" fill="none" stroke="none" visibility="hidden"></rect></g></svg></g></svg>
